<svg xmlns="http://www.w3.org/2000/svg" xmlns:xlink="http://www.w3.org/1999/xlink" width="24" height="24" viewBox="0 0 24 24">
    <defs>
        <path id="prefix__a" d="M10 0C4.5 0 0 4.5 0 10s4.5 10 10 10 10-4.5 10-10S15.5 0 10 0zm4.6 14.6c-.2.2-.6.4-.9.4-.3 0-.6-.1-.9-.4L10 11.8l-2.8 2.9c-.2.2-.6.3-.9.3-.3 0-.6-.1-.9-.4-.5-.5-.5-1.3 0-1.8l2.8-2.9-2.8-2.7c-.5-.5-.5-1.3 0-1.8s1.3-.5 1.8 0l2.9 2.8 2.8-2.9c.5-.5 1.3-.5 1.8 0s.5 1.3 0 1.8L11.8 10l2.9 2.8c.4.5.4 1.3-.1 1.8z"/>
    </defs>
    <g fill="none" fill-rule="evenodd" transform="translate(2 2)">
        <mask id="prefix__b" fill="#fff">
            <use xlink:href="#prefix__a"/>
        </mask>
        <g fill="#858585" mask="url(#prefix__b)">
            <path d="M0 0L24 0 24 24 0 24z" transform="translate(-2 -2)"/>
        </g>
    </g>
</svg>
